<svg width="22" height="23" viewBox="0 0 22 23" fill="none" xmlns="http://www.w3.org/2000/svg">
<rect width="22" height="22" transform="translate(0 0.5)" fill="#00657B"/>
<path d="M4.51284 10.3535C4.26182 9.63177 4.08005 8.89465 4.13487 8.11145C4.16949 7.62925 4.33972 7.21769 4.67153 6.87985C5.03219 6.51743 5.37265 6.13658 5.72754 5.76802C6.18919 5.28275 6.76913 5.28582 7.23077 5.76802C7.51642 6.06594 7.79917 6.37 8.08193 6.67407C8.35603 6.96584 8.63302 7.25762 8.90712 7.55247C9.38896 8.07153 9.39185 8.67658 8.91001 9.19257C8.56377 9.56113 8.22042 9.93276 7.86842 10.2952C7.77609 10.3904 7.76744 10.4702 7.81648 10.59C8.04731 11.1797 8.382 11.7049 8.75709 12.1963C9.51303 13.1853 10.3671 14.0637 11.3856 14.7425C11.6049 14.8868 11.8443 14.9943 12.0723 15.1264C12.1906 15.194 12.2685 15.1725 12.3637 15.068C12.707 14.6903 13.059 14.3186 13.411 13.947C13.8727 13.4617 14.4497 13.4587 14.9114 13.947C15.4769 14.5428 16.0395 15.1418 16.5993 15.7437C17.0696 16.2474 17.0667 16.8648 16.5935 17.3715C16.2732 17.7155 15.9357 18.0411 15.6356 18.4004C15.197 18.9226 14.6431 19.0946 14.0141 19.0577C13.0966 19.0055 12.2512 18.6799 11.4346 18.2592C9.62267 17.3224 8.07616 16.0232 6.78067 14.3831C5.82276 13.1669 5.03219 11.8462 4.51284 10.3535ZM18.3333 11.4531C18.3333 7.30983 15.1653 3.9375 11.2731 3.9375V5.36875C14.4238 5.36875 16.9888 8.09917 16.9888 11.4531H18.3333ZM14.4671 11.4531H15.8116C15.8116 8.79022 13.7746 6.62185 11.2731 6.62185V8.0531C12.1271 8.0531 12.9292 8.4063 13.5322 9.04821C14.1353 9.69012 14.4671 10.544 14.4671 11.4531Z" fill="#0D171A"/>
</svg>
