<svg width="22" height="23" viewBox="0 0 22 23" fill="none" xmlns="http://www.w3.org/2000/svg">
<rect width="22" height="22" transform="translate(0 0.5)" fill="#00657B"/>
<path d="M10.9999 4C8.24303 4 6 6.24303 6 8.99995C6 9.82757 6.20692 10.6482 6.60029 11.376L10.7265 18.8387C10.7815 18.9382 10.8861 18.9998 10.9999 18.9998C11.1138 18.9998 11.2184 18.9382 11.2734 18.8387L15.4011 11.3735C15.793 10.6482 15.9999 9.82754 15.9999 8.99992C15.9999 6.24303 13.7569 4 10.9999 4ZM10.9999 11.4999C9.62149 11.4999 8.49999 10.3784 8.49999 8.99995C8.49999 7.62149 9.62149 6.49999 10.9999 6.49999C12.3784 6.49999 13.4999 7.62149 13.4999 8.99995C13.4999 10.3784 12.3784 11.4999 10.9999 11.4999Z" fill="#0D171A"/>
</svg>
