<svg width="150" height="17" viewBox="0 0 150 17" fill="none" xmlns="http://www.w3.org/2000/svg">
<path d="M72.0016 13.3935H55.979V17H72.0016V13.3935Z" fill="white"/>
<path d="M3.09122 17H13.9178V13.3935H0L3.09122 17Z" fill="white"/>
<path d="M70.8686 6.69433H55.979V10.3008H70.8686V6.69433Z" fill="white"/>
<path d="M14.831 0V17H18.8306L21.7118 14.0382V0H14.831Z" fill="white"/>
<path d="M128.503 2.98603V14.0285L131.34 16.9467L131.389 17H138.792V13.3935H134.363L132.82 11.8035V5.20131L134.251 3.6065H138.792V0H131.174L128.503 2.98603Z" fill="white"/>
<path d="M102.215 2.98603V14.0285L105.053 16.9467L105.102 17H112.505V13.3935H108.076L106.528 11.8035V5.20131L107.958 3.6065H112.505V0H104.887L102.215 2.98603Z" fill="white"/>
<path d="M121.041 0H113.418V3.6065H117.965L119.376 5.18677V11.8035L117.833 13.3935H113.418V17H120.831L123.659 14.0915L123.708 14.0382V2.97149L121.09 0.0533219L121.041 0Z" fill="white"/>
<path d="M147.329 0H139.706V3.6065H144.252L145.663 5.18677V11.8035L144.125 13.3935H139.706V17H147.119L149.946 14.0915L150 14.0382V2.97149L147.382 0.0533219L147.329 0Z" fill="white"/>
<path d="M76.6115 2.93271L76.5676 2.98603V14.0285L79.4537 17H80.8797V0H79.2437L76.6115 2.93271Z" fill="white"/>
<path d="M97.8155 0H81.7929V3.6065H97.8155V0Z" fill="white"/>
<path d="M72.0016 0H55.979V3.6065H72.0016V0Z" fill="white"/>
<path d="M97.8155 13.3935H81.7929V17H97.8155V13.3935Z" fill="white"/>
<path d="M50.7537 0V17H55.0658V0H50.7537Z" fill="white"/>
<path d="M28.4803 0L25.0277 17H29.579L32.2991 3.61135H38.2765L37.5439 0H28.4803ZM43.072 0H38.5255L41.9781 16.9952H46.5197L43.072 0Z" fill="white"/>
</svg>
